<svg xmlns="http://www.w3.org/2000/svg" xmlns:xlink="http://www.w3.org/1999/xlink" viewBox="0,0,256,256" width="50px" height="50px" fill-rule="nonzero"><g fill="#e0910f" fill-rule="nonzero" stroke="none" stroke-width="1" stroke-linecap="butt" stroke-linejoin="miter" stroke-miterlimit="10" stroke-dasharray="" stroke-dashoffset="0" font-family="none" font-weight="none" font-size="none" text-anchor="none" style="mix-blend-mode: normal"><g transform="scale(5.12,5.12)"><path d="M23.027,37.975c2.869,-3.752 3.973,-4.853 3.973,-6.953c0,-2.87 -2.318,-4.194 -4.194,-5.518c-1.876,-1.324 -4.967,-2.428 -3.973,-4.304c-0.773,-0.552 -0.773,-0.552 -0.773,-0.552l-2.318,2.87c0,0 -1.747,1.878 -1.656,4.084c0.11,2.649 1.225,3.516 3.532,5.077c3.753,2.538 5.518,3.532 4.525,4.635c0.884,0.661 0.332,0.22 0.884,0.661zM32.124,30l4.875,-6.283c0,0 1.692,-1.805 1.692,-5.189c0,-3.384 -2.707,-5.415 -4.174,-6.43c-1.467,-1.015 -6.882,-4.738 -6.882,-4.738c0,0 -1.918,-1.015 -1.918,-2.482c0,-1.128 0.309,-1.314 0.309,-1.314l-0.676,-0.564l-4.258,5.713c0,0 -1.692,1.805 -1.692,4.512c0,2.707 1.241,4.851 2.595,5.866c1.354,1.015 7.446,5.189 7.446,5.189c0,0 2,1.485 2.256,3.272c0.179,1.247 0.089,1.432 -0.249,1.996c0.676,0.452 0.676,0.452 0.676,0.452zM29.781,47h-9.562l-1,-4h-7.219l1,-2h7.781h8.438h7.781l1,2h-7.219z"></path></g></g></svg>